Coordinates
version=1
nRows=60
nColumns=12
inDegrees=yes

Units are S.I. units (second, meters, Newtons, ...)
Angles are in degrees

endheader
time	SC_y	SC_z	SC_x	AC_y	AC_z	AC_x	GH_y	GH_z	GH_yy	EL_x	PS_y
       0.0              -53.88          4.488          83.78          69.31        -0.8616          6.145          2.864          5.391          131.3          113.2          108.5
   0.01119              -53.88          4.489          83.77           69.3        -0.8606          6.144          2.867          5.403          131.3          113.2          108.5
   0.02239              -53.88          4.491          83.76           69.3        -0.8596          6.143          2.871          5.416          131.3          113.2          108.5
   0.03358              -53.88          4.492          83.74          69.29        -0.8584          6.142          2.874           5.43          131.3          113.2          108.5
   0.04477              -53.88          4.493          83.73          69.29        -0.8573          6.141          2.879          5.445          131.3          113.2          108.5
   0.05597              -53.88          4.495          83.71          69.28         -0.856           6.14          2.883           5.46          131.3          113.2          108.4
   0.06716              -53.88          4.496           83.7          69.28        -0.8546          6.138          2.888          5.477          131.3          113.2          108.4
   0.07835              -53.87          4.498          83.68          69.27        -0.8532          6.137          2.893          5.495          131.3          113.2          108.4
   0.08955              -53.87            4.5          83.66          69.26        -0.8516          6.135          2.898          5.515          131.3          113.2          108.4
    0.1007              -53.87          4.501          83.64          69.25        -0.8499          6.134          2.904          5.535          131.3          113.2          108.4
    0.1119              -53.87          4.503          83.62          69.25        -0.8481          6.132           2.91          5.557          131.2          113.2          108.3
    0.1231              -53.87          4.506           83.6          69.24        -0.8462           6.13          2.917          5.581          131.2          113.2          108.3
    0.1343              -53.86          4.508          83.57          69.23        -0.8441          6.128          2.924          5.607          131.2          113.2          108.3
    0.1455              -53.86           4.51          83.54          69.22        -0.8419          6.126          2.932          5.635          131.2          113.2          108.3
    0.1567              -53.86          4.513          83.52          69.21        -0.8394          6.124           2.94          5.665          131.2          113.2          108.2
    0.1679              -53.85          4.516          83.48          69.19        -0.8368          6.121          2.949          5.698          131.2          113.1          108.2
    0.1791              -53.85          4.519          83.45          69.18        -0.8339          6.119          2.959          5.733          131.2          113.1          108.2
    0.1903              -53.85          4.523          83.41          69.17        -0.8308          6.116           2.97          5.772          131.1          113.1          108.1
    0.2015              -53.84          4.527          83.37          69.15        -0.8274          6.112          2.981          5.814          131.1          113.1          108.1
    0.2127              -53.84          4.531          83.33          69.13        -0.8236          6.109          2.994          5.861          131.1          113.1          108.0
    0.2239              -53.84          4.535          83.28          69.11        -0.8195          6.105          3.008          5.912          131.1          113.1          108.0
    0.2351              -53.83           4.54          83.22          69.09         -0.815            6.1          3.024          5.967          131.0          113.1          107.9
    0.2463              -53.82          4.546          83.17          69.07          -0.81          6.096          3.041          6.029          131.0          113.1          107.9
    0.2575              -53.82          4.552           83.1          69.04        -0.8045           6.09           3.06          6.098          131.0          113.0          107.8
    0.2686              -53.81          4.559          83.03          69.02        -0.7983          6.084          3.081          6.174          130.9          113.0          107.7
    0.2798               -53.8          4.566          82.94          68.98        -0.7915          6.078          3.105          6.259          130.9          113.0          107.6
     0.291              -53.79          4.575          82.85          68.95        -0.7838          6.071          3.132          6.354          130.8          113.0          107.5
    0.3022              -53.78          4.585          82.75          68.91        -0.7751          6.062          3.161          6.461          130.8          113.0          107.4
    0.3134              -53.77          4.596          82.63          68.86        -0.7654          6.053          3.195          6.582          130.7          112.9          107.3
    0.3246              -53.76          4.608           82.5          68.81        -0.7543          6.042          3.233          6.719          130.6          112.9          107.2
    0.3358              -53.75          4.622          82.35          68.75        -0.7416           6.03          3.277          6.876          130.6          112.9          107.0
     0.347              -53.73          4.638          82.18          68.68        -0.7271          6.016          3.327          7.056          130.5          112.8          106.8
    0.3582              -53.71          4.657          81.98          68.61        -0.7103            6.0          3.384          7.263          130.3          112.8          106.6
    0.3694              -53.69          4.679          81.75          68.52        -0.6908          5.982          3.452          7.504          130.2          112.7          106.4
    0.3806              -53.66          4.704          81.47          68.41         -0.668           5.96           3.53          7.787          130.1          112.6          106.1
    0.3918              -53.63          4.734          81.15          68.29        -0.6411          5.934          3.623          8.119          129.9          112.5          105.8
     0.403              -53.59           4.77          80.77          68.14        -0.6092          5.903          3.733          8.515          129.7          112.4          105.4
    0.4142              -53.55          4.812          80.32          67.96        -0.5709          5.867          3.865          8.989          129.4          112.3          104.9
    0.4254               -53.5          4.864          79.77          67.75        -0.5246          5.822          4.024          9.562          129.1          112.2          104.3
    0.4365              -53.43          4.927          79.09          67.48         -0.468          5.768          4.219          10.26          128.8          112.0          103.6
    0.4477              -53.35          5.005          78.26          67.16        -0.3981          5.701          4.459          11.13          128.3          111.8          102.8
    0.4589              -53.25          5.102          77.22          66.76         -0.311          5.618          4.759          12.21          127.7          111.5          101.7
    0.4701              -53.13          5.224          75.92          66.25        -0.2013          5.513          5.137          13.56          127.0          111.2          100.3
    0.4813              -52.97          5.379          74.26           65.6        -0.0618          5.379          5.617          15.29          126.1          110.7          98.62
    0.4925              -52.77          5.578          72.13          64.77         0.1167          5.208          6.232           17.5          125.0          110.2          96.42
    0.5037               -52.5          5.834           69.4          63.71         0.3459          4.989          7.021          20.34          123.5          109.4          93.59
    0.5149              -52.17           6.16          65.92          62.35         0.6385          4.709          8.029          23.96          121.5          108.5          89.97
    0.5261              -51.75           6.57          61.53          60.64          1.007          4.356          9.296          28.51          119.1          107.4          85.42
    0.5373              -51.24          7.069          56.19          58.57          1.455          3.927          10.84          34.06          116.2          106.0          79.88
    0.5485              -50.64          7.648           50.0          56.15          1.975          3.429          12.63           40.5          112.8          104.3          73.46
    0.5597               -50.0          8.275           43.3          53.54          2.538           2.89          14.57          47.46          109.2          102.6           66.5
    0.5709              -49.36          8.902           36.6          50.93            3.1          2.351          16.51          54.43          105.5          100.8          59.55
    0.5821              -48.76          9.481          30.41          48.52           3.62          1.853          18.29          60.86          102.1          99.16          53.13
    0.5933              -48.25          9.981          25.07          46.44          4.069          1.424          19.84          66.41          99.18          97.75          47.58
    0.6045              -47.83          10.39          20.68          44.74          4.437          1.072          21.11          70.97          96.78          96.59          43.04
    0.6156               -47.5          10.72           17.2          43.38          4.729         0.7913          22.11          74.59          94.87          95.67          39.42
    0.6268              -47.23          10.97          14.47          42.32          4.958         0.5719           22.9          77.43          93.38          94.95          36.59
     0.638              -47.03          11.17          12.34          41.49          5.137         0.4009          23.52          79.64          92.21          94.39          34.38
    0.6492              -46.87          11.33          10.68          40.84          5.276         0.2674           24.0          81.36           91.3          93.96          32.66
    0.6604              -46.75          11.45          9.376          40.33          5.386         0.1623          24.38          82.72          90.59          93.61           31.3
